<svg xmlns="http://www.w3.org/2000/svg" viewBox="0 0 50 50" fill="currentColor">
    <path d="M 18 4 C 15.375 4 15.044922 6.9765625 15.044922 6.9765625 L 15 17 L 19 17 L 19 8 L 36 8 L 36 33 L 30 33 L 29 37 L 36 37 C 38.209 37 40 35.209 40 33 L 40 4 L 18 4 z M 14.25 19.875 L 13.875 23.375 C 14 23.375 19.375 23.5 19.375 23.5 C 12.75 30 12.701172 37.074219 12.701172 37.074219 L 12.765625 38.988281 C 12.765625 46.238281 22 47 22 47 L 22 46 C 19.125 44.875 14.949219 43.886719 15.574219 37.011719 C 16.199219 30.136719 23.5 25.5 23.5 25.5 L 22.375 32 L 26.125 32 L 28 19.875 L 14.25 19.875 z"></path>
</svg>
